<svg width="542" height="196" viewBox="0 0 542 196" fill="none" xmlns="http://www.w3.org/2000/svg">
<g filter="url(#filter0_d_3_14)">
<path d="M47.3098 164.174C45.9645 164.463 44.8759 164.259 44.0439 163.56C43.3043 162.94 42.8974 162.205 42.823 161.354C42.7635 160.674 42.9202 160.018 43.2932 159.386C43.7586 158.831 44.4515 158.428 45.3717 158.176C47.5522 157.643 50.2629 156.806 53.5038 155.666C56.8298 154.518 60.2185 153.108 63.6698 151.436C67.1988 149.671 70.3579 147.596 73.1473 145.21C76.7347 142.155 79.607 139.248 81.7641 136.49C83.9212 133.731 85.5661 130.504 86.6989 126.807C87.0273 125.665 87.1654 124.796 87.1134 124.201C87.0241 123.181 86.4785 122.329 85.4765 121.646C84.5594 120.955 83.1765 119.834 81.3275 118.283C79.4786 116.731 77.473 115.836 75.3106 115.597C73.2257 115.265 70.361 114.831 66.7162 114.293C64.2765 113.821 62.0179 113.462 59.9405 113.215C57.9481 112.961 56.1019 112.909 54.4017 113.058C53.3816 113.147 52.5443 112.877 51.8897 112.249C51.2351 111.621 50.8707 110.882 50.7963 110.032C50.6699 108.587 51.2718 107.635 52.6022 107.176C54.0102 106.624 55.662 105.923 57.5577 105.072C59.5384 104.214 61.508 103.227 63.4664 102.114C65.4248 101 67.1133 99.739 68.5319 98.33C69.9505 96.921 70.8016 95.3903 71.0854 93.7379C71.1884 92.958 71.2565 92.2668 71.2894 91.6643C71.3999 90.9693 71.4291 90.3243 71.3771 89.7292C71.1763 87.434 70.2162 85.762 68.4969 84.7132C66.8627 83.6569 64.5632 82.8302 61.5985 82.233C60.4637 81.9896 59.3012 81.92 58.1111 82.0241C57.261 82.0985 56.3795 82.3041 55.4668 82.641C54.6315 82.8853 53.51 83.2833 52.102 83.8347C51.4219 83.8942 50.7605 84.1663 50.1176 84.6508C49.4747 85.1354 48.5842 85.7272 47.4462 86.4264C47.1986 86.5337 46.951 86.641 46.7034 86.7484C46.4484 86.7707 46.1933 86.793 45.9383 86.8153C44.8332 86.912 43.8684 86.6538 43.0438 86.0406C42.3042 85.4201 41.8972 84.6847 41.8229 83.8346C41.7188 82.6445 42.367 81.7312 43.7675 81.0947C44.5953 80.7653 45.3694 80.3121 46.0898 79.7352C46.8953 79.1507 47.9595 78.5865 49.2824 78.0424C50.6054 77.4984 51.9358 77.0394 53.2736 76.6654C54.6114 76.2913 56.0029 76.0411 57.4481 75.9147C58.3832 75.8329 59.2832 75.8398 60.1481 75.9354C61.0907 75.9386 62.0794 75.9806 63.1144 76.0614C66.8442 76.5917 70.262 77.963 73.368 80.1754C76.559 82.3803 78.3255 85.438 78.6676 89.3484C78.742 90.1985 78.7351 91.0985 78.6469 92.0485C78.6362 92.906 78.4593 93.8209 78.1161 94.7932C77.2638 97.7802 75.7331 100.355 73.5239 102.519C71.3923 104.59 69.0647 106.378 66.541 107.884C66.711 107.869 66.9697 107.889 67.3172 107.944C67.6647 108 68.0121 108.055 68.3596 108.11C71.3168 108.622 74.3129 109.088 77.3477 109.508C80.46 109.835 83.4528 111.244 86.3261 113.734C87.1581 114.432 88.1713 115.243 89.3657 116.166C90.5526 117.004 91.6306 118.067 92.5997 119.352C93.5687 120.638 94.1314 122.174 94.2876 123.959C94.3396 124.554 94.3141 125.241 94.211 126.021C94.193 126.794 94.0086 127.624 93.6579 128.511C92.2223 132.663 90.2394 136.434 87.7093 139.824C85.2642 143.208 82.0891 146.569 78.184 149.909C74.8293 152.687 71.1787 155.019 67.2322 156.906C63.3781 158.871 59.6605 160.438 56.0795 161.608C52.5835 162.77 49.6603 163.626 47.3098 164.174ZM32.1867 167.553C30.6566 167.687 29.0781 167.268 27.4513 166.297C25.8319 165.411 25.0455 163.766 25.0923 161.364C25.1168 158.706 25.6194 155.15 26.6003 150.696C27.6661 146.234 28.9998 141.406 30.6012 136.212C32.1951 130.933 33.9166 125.643 35.7656 120.341C37.6922 114.948 39.5709 109.986 41.4018 105.458C43.3178 100.921 44.9606 97.1799 46.3303 94.2334C46.9764 92.8063 48.107 92.0221 49.7222 91.8808C50.6573 91.799 51.5371 92.0646 52.3617 92.6778C53.1863 93.2909 53.5656 94.2 53.4997 95.405L53.4886 95.2774C53.4779 96.135 53.2532 97.4824 52.8143 99.3196C52.3754 101.157 51.8606 102.615 51.2698 103.695C50.4537 105.137 49.4288 106.64 48.1951 108.204C46.9539 109.683 45.9088 111.445 45.0598 113.489C42.4276 119.63 40.0856 125.66 38.0336 131.579C36.0592 137.405 34.5115 142.723 33.3904 147.532C32.2618 152.256 31.7002 156.117 31.7055 159.115C31.6725 159.717 31.9833 160.333 32.6379 160.961C33.3775 161.581 34.0745 162.206 34.7291 162.834C35.4687 163.454 35.8682 164.104 35.9277 164.784C35.9797 165.38 35.5643 166.016 34.6812 166.692C34.0383 167.177 33.2069 167.464 32.1867 167.553ZM96.3505 155.387C95.1902 155.831 94.2365 155.7 93.4895 154.994C92.6574 154.296 92.2005 153.48 92.1187 152.545C91.9849 151.014 92.6256 150.016 94.041 149.55C96.3618 148.661 98.4238 147.753 100.227 146.824C102.03 145.895 104.181 145.022 106.679 144.204C107.188 142.189 107.773 140.553 108.434 139.296C109.158 137.777 109.924 136.253 110.733 134.726C111.626 133.192 112.416 131.453 113.103 129.508C115.317 123.489 117.09 117.809 118.422 112.468C119.746 107.041 120.926 101.927 121.962 97.1246C122.998 92.3227 124.234 87.846 125.67 83.6944C122.709 84.1247 120.058 84.6565 117.714 85.2898C115.364 85.8381 112.792 86.7912 109.998 88.1492C109.503 88.3638 109.086 88.486 108.746 88.5158C107.895 88.5901 107.143 88.3133 106.489 87.6853C105.919 87.0499 105.597 86.3071 105.523 85.457C105.471 84.8619 105.55 84.2982 105.76 83.7659C106.056 83.2261 106.532 82.7989 107.19 82.4844C110.966 80.6121 114.498 79.3609 117.783 78.7308C121.061 78.0157 124.691 77.3984 128.671 76.8788C129.266 76.8268 129.819 76.7784 130.329 76.7338C130.831 76.6042 131.338 76.5171 131.848 76.4724C134.823 76.2121 137.516 76.1479 139.926 76.2797C142.413 76.319 145.145 76.2085 148.12 75.9482C149.055 75.8664 149.711 76.0231 150.088 76.4184C150.543 76.7213 150.789 77.0852 150.826 77.5103C150.879 78.1053 150.637 78.7689 150.101 79.5011C149.558 80.1482 148.692 80.5238 147.502 80.6279C144.094 80.8404 141.338 81.1671 139.236 81.6081C137.125 81.964 134.717 82.346 132.012 82.754C130.358 87.353 128.738 92.3345 127.152 97.6985C125.65 103.055 124.153 108.454 122.658 113.896C121.164 119.337 119.737 124.559 118.375 129.561C117.007 134.477 115.636 138.88 114.263 142.769C116.898 142.539 119.382 142.536 121.715 142.76C124.132 142.977 126.588 143.147 129.083 143.272C130.026 143.275 130.732 143.513 131.201 143.986C131.671 144.459 131.932 144.992 131.984 145.588C132.044 146.268 131.798 146.889 131.248 147.451C130.697 148.013 129.866 148.3 128.753 148.312C126.861 148.22 125.099 148.16 123.469 148.131C121.924 148.095 120.302 148.151 118.602 148.3C117.581 148.389 116.48 148.529 115.297 148.718C114.2 148.9 113.063 149.127 111.888 149.402C111.29 150.396 110.396 150.946 109.205 151.05C108.44 151.117 107.83 150.999 107.376 150.696C105.635 151.362 103.941 152.067 102.293 152.811C100.737 153.632 98.7563 154.491 96.3505 155.387ZM186.022 139.189C185.427 139.242 184.775 139.127 184.065 138.847C183.44 138.559 182.928 138.09 182.528 137.439C180.878 134.243 179.071 130.718 177.106 126.864C175.134 122.925 173.4 119.264 171.905 115.883C168.993 109.028 166.577 102.472 164.659 96.2158C162.819 89.8667 161.739 84.8645 161.419 81.2091C161.367 80.6141 161.319 80.0615 161.274 79.5515C161.315 79.034 161.362 78.6015 161.418 78.254C161.498 77.2191 161.899 76.4131 162.619 75.8361C163.417 75.1667 164.242 74.7948 165.092 74.7204C165.942 74.646 166.687 74.8378 167.326 75.2958C167.958 75.6688 168.234 76.3728 168.153 77.4077C168.106 77.8402 168.017 78.7902 167.889 80.2576C167.838 81.6327 167.885 82.6565 168.029 83.3291C168.17 84.9443 168.599 87.3909 169.314 90.6691C170.106 93.8548 171.199 97.5282 172.591 101.689C173.983 105.851 175.644 110.159 177.576 114.616C178.22 116.102 179.099 117.824 180.213 119.782C181.326 121.74 182.432 123.614 183.531 125.402C184.715 127.183 185.579 128.735 186.123 130.058C187.009 128.439 188.142 125.727 189.523 121.923C190.98 118.026 192.564 113.605 194.273 108.658C196.059 103.619 197.919 98.4456 199.853 93.1368C201.787 87.828 203.662 82.8242 205.478 78.1254C207.372 73.3342 209.123 69.3691 210.733 66.2301C212.421 62.9988 213.834 61.0335 214.972 60.3343C216.102 59.5501 217.348 59.0985 218.708 58.9795C219.303 58.9275 219.824 59.0104 220.271 59.2282C220.711 59.361 220.954 59.6825 220.998 60.1925C221.05 60.7876 220.812 61.4937 220.284 62.3108C219.756 63.128 219.174 63.8213 218.539 64.3908C216.873 65.9072 215.126 68.4585 213.298 72.0447C211.463 75.546 209.598 79.6923 207.705 84.4836C205.889 89.1824 204.056 94.1825 202.207 99.4838C200.436 104.693 198.699 109.813 196.998 114.844C195.374 119.783 193.841 124.286 192.398 128.353C190.947 132.334 189.677 135.443 188.588 137.68C188.153 138.575 187.297 139.078 186.022 139.189ZM145.567 152.623C144.037 152.756 142.462 152.38 140.843 151.494C139.231 150.693 138.452 149.133 138.506 146.816C138.838 137.878 139.92 129.689 141.753 122.247C143.671 114.798 145.865 108.054 148.335 102.013C150.797 95.8868 153.017 90.4245 154.996 85.6258C155.922 83.4889 157.023 82.3647 158.298 82.2531C159.488 82.149 160.038 83.0432 159.946 84.9357L160.074 84.9245C160.026 85.357 159.725 86.3256 159.172 87.8302C158.618 89.3349 157.959 91.1057 157.195 93.1427C156.509 95.0873 155.776 96.993 154.997 98.86C154.296 100.635 153.773 102.008 153.43 102.98C152.035 106.614 150.854 109.759 149.887 112.413C148.997 114.975 148.217 117.313 147.545 119.428C146.959 121.535 146.503 123.673 146.179 125.843C145.855 128.013 145.65 130.558 145.562 133.478C145.468 136.313 145.429 139.786 145.446 143.896C145.498 144.491 145.812 145.149 146.389 145.869C147.044 146.497 147.656 147.129 148.226 147.764C148.88 148.392 149.237 149.046 149.297 149.726C149.356 150.406 149.026 151.035 148.305 151.612C147.755 152.174 146.842 152.511 145.567 152.623ZM283.594 147.357C282.659 147.438 281.787 147.258 280.977 146.815C280.252 146.364 279.98 145.703 280.161 144.83C281.204 140.113 282.407 135.254 283.768 130.252C285.214 125.243 286.746 120.227 288.362 115.203C285.209 115.393 282.018 115.629 278.787 115.912C275.635 116.102 272.656 116.32 269.85 116.565C266.96 116.818 264.286 117.095 261.828 117.396C259.455 117.689 257.461 117.906 255.846 118.047C254.401 118.174 252.919 117.875 251.399 117.152C249.965 116.421 249.18 115.29 249.047 113.76C248.95 112.655 249.313 111.424 250.137 110.067C255.107 100.295 259.861 91.4845 264.399 83.6351C269.023 75.7782 273.065 68.6147 276.525 62.1445C277.193 60.9725 278.122 60.3344 279.312 60.2302C280.162 60.1559 280.907 60.3477 281.547 60.8057C282.272 61.2562 282.667 61.864 282.734 62.6291C282.786 63.2242 282.661 63.7491 282.358 64.2039C280.663 67.3503 278.786 70.8552 276.725 74.7189C274.665 78.5825 272.566 82.4923 270.428 86.4484C268.375 90.397 266.388 94.1257 264.468 97.6344C262.548 101.143 260.884 104.158 259.477 106.68C258.155 109.194 257.191 110.906 256.586 111.815C258.881 111.614 261.814 111.358 265.384 111.046C269.04 110.726 273.039 110.419 277.382 110.124C281.717 109.745 286.102 109.447 290.538 109.23C293.549 100.572 296.539 92.6442 299.507 85.4461C302.552 78.1556 304.974 72.5472 306.772 68.6209C307.263 67.3787 308.274 66.6907 309.804 66.5568C310.739 66.475 311.569 66.6594 312.293 67.1099C313.011 67.4755 313.399 67.9983 313.459 68.6783C313.488 69.0184 313.394 69.4121 313.176 69.8594C311.456 73.6933 309.186 79.0743 306.365 86.0025C303.545 92.9306 300.735 100.458 297.933 108.583L303.45 108.486C304.563 108.474 305.396 108.701 305.951 109.167C306.505 109.632 306.813 110.205 306.872 110.885C306.946 111.735 306.673 112.53 306.053 113.269C305.432 114.009 304.484 114.435 303.209 114.546C302.019 114.65 300.783 114.716 299.5 114.742C298.303 114.761 297.024 114.83 295.664 114.949C293.97 120.066 292.361 125.175 290.837 130.276C289.398 135.37 288.153 140.233 287.102 144.865C286.914 145.653 286.453 146.25 285.717 146.657C285.067 147.056 284.359 147.29 283.594 147.357ZM362.433 143.671C361.583 143.746 360.927 143.589 360.465 143.201C360.002 142.813 359.745 142.322 359.693 141.727C359.574 140.367 360.35 139.442 362.02 138.953C364.186 138.25 366.983 136.934 370.412 135.007C373.849 133.164 377.546 130.871 381.503 128.126C385.46 125.381 389.31 122.389 393.052 119.149C396.88 115.902 400.186 112.572 402.971 109.159C405.841 105.738 407.819 102.396 408.904 99.1316C410.074 95.8599 410.806 91.984 411.099 87.5041C411.47 82.9317 411.488 78.7328 411.153 74.9074C410.967 72.7822 410.672 70.8807 410.269 69.2028C409.865 67.5249 409.371 66.2833 408.786 65.4778C406.034 61.4356 402.784 58.5506 399.035 56.8228C395.364 55.0025 391.09 54.1343 386.215 54.2182C385.783 54.1704 385.311 54.1688 384.801 54.2134C384.376 54.2506 383.951 54.2878 383.526 54.3249C381.571 54.496 379.766 54.9109 378.11 55.5697C376.455 56.2285 374.481 57.1721 372.19 58.4004C371.285 58.8223 370.472 59.3217 369.752 59.8987C369.024 60.3907 368.094 61.0287 366.964 61.8129C366.476 62.1126 365.977 62.2847 365.467 62.3293C364.617 62.4037 363.822 62.1306 363.083 61.5101C362.428 60.882 362.067 60.1855 362 59.4204C361.896 58.2303 362.413 57.2857 363.551 56.5865C364.527 55.9872 365.417 55.3953 366.223 54.8109C367.021 54.1414 368.074 53.4497 369.382 52.7356C372.168 51.2927 374.81 50.1621 377.308 49.3439C379.884 48.4333 382.883 47.9567 386.306 47.9143C392.131 47.9186 397.667 49.019 402.913 51.2154C408.244 53.4045 412.362 56.8989 415.266 61.6987C416.065 62.9994 416.724 64.6549 417.242 66.6654C417.753 68.5908 418.113 70.7437 418.321 73.1239C418.708 77.5443 418.568 82.3107 417.902 87.4229C417.313 92.4426 416.301 97.0283 414.865 101.18C413.422 105.246 411.11 109.175 407.93 112.965C404.834 116.748 401.249 120.317 397.174 123.671C393.177 126.933 389.025 129.909 384.721 132.599C380.501 135.281 376.499 137.515 372.715 139.303C369.024 141.167 365.933 142.551 363.442 143.455C363.194 143.562 362.858 143.634 362.433 143.671ZM365.898 133.346C364.538 133.465 363.13 133.031 361.673 132.045C360.301 131.052 359.638 129.354 359.685 126.951C359.702 124.209 360.085 120.749 360.833 116.572C361.659 112.302 362.71 107.67 363.986 102.676C365.347 97.6743 366.793 92.6652 368.325 87.6486C369.941 82.6247 371.502 77.9481 373.008 73.6191C374.506 69.205 375.859 65.5747 377.066 62.728C377.712 61.3009 378.715 60.5278 380.075 60.4088C380.925 60.3345 381.678 60.6113 382.332 61.2393C383.072 61.8599 383.409 62.7727 383.343 63.9777L383.459 63.839C383.449 64.6965 383.266 66.0402 382.912 67.87C382.644 69.6923 382.21 71.1008 381.612 72.0954C380.881 73.5299 379.983 75.0218 378.92 76.5711C377.856 78.1204 376.942 79.9135 376.178 81.9505C372.779 91.0708 370.085 99.4441 368.097 107.07C366.186 114.604 365.25 120.554 365.289 124.919C365.342 125.514 365.652 126.129 366.222 126.765C366.876 127.393 367.489 128.024 368.058 128.66C368.713 129.288 369.07 129.942 369.129 130.622C369.189 131.302 368.819 131.977 368.021 132.646C367.626 133.024 366.918 133.257 365.898 133.346ZM446.376 129.903C445.696 129.962 444.878 129.905 443.92 129.732C438.586 128.486 434.558 126.011 431.835 122.309C429.105 118.522 427.547 114.418 427.16 109.998C427.101 109.318 427.045 108.68 426.993 108.085C427.019 107.398 427.048 106.753 427.081 106.15C427.422 101.238 428.662 96.8034 430.8 92.8474C433.023 88.8839 435.603 85.5744 438.54 82.919C441.554 80.1711 444.35 78.3419 446.925 77.4313C448.588 76.8575 450.259 76.3687 451.937 75.9649C453.607 75.4761 455.25 75.1611 456.865 75.0198C460.945 74.6628 464.509 75.2505 467.555 76.7828C470.602 78.3151 472.303 81.1215 472.66 85.2019C472.861 87.4971 472.321 89.643 471.039 91.6397C469.843 93.6288 468.242 95.3965 466.235 96.9425C464.307 98.3962 462.398 99.591 460.51 100.527C457.639 101.978 454.317 103.168 450.543 104.097C446.855 105.02 443.353 105.626 440.038 105.916C437.912 106.102 435.946 106.145 434.139 106.047L434.15 106.174C434.18 106.514 434.167 106.858 434.112 107.205C434.049 107.468 434.032 107.769 434.062 108.109C434.007 108.457 433.994 108.8 434.024 109.14C434.046 109.395 434.068 109.65 434.091 109.905C434.321 112.541 435.036 114.834 436.235 116.785C437.511 118.643 438.935 120.232 440.506 121.551C442.07 122.784 443.357 123.785 444.367 124.554C445.964 125.185 447.089 125.814 447.744 126.442C448.491 127.148 448.883 127.713 448.92 128.138C449.01 129.158 448.162 129.747 446.376 129.903ZM442.979 99.8767C445.529 99.6535 448.192 99.2493 450.967 98.6638C453.735 97.9933 456.261 97.0014 458.545 95.688C460.333 94.5893 461.968 93.2042 463.449 91.5328C464.923 89.7763 465.563 87.793 465.37 85.5827C465.221 83.8826 464.43 82.6669 462.995 81.9358C461.561 81.2047 459.611 80.947 457.145 81.1627C454.34 81.4082 451.324 82.1859 448.098 83.4961C446.938 83.9403 445.521 84.878 443.847 86.3093C442.259 87.7332 440.669 89.6283 439.077 91.9947C437.477 94.2761 436.213 96.9565 435.283 100.036C436.311 100.032 437.469 100.059 438.759 100.117C440.127 100.083 441.533 100.003 442.979 99.8767ZM495.757 121.599C492.441 121.889 489.654 121.362 487.395 120.018C485.136 118.674 483.353 116.903 482.047 114.704C480.819 112.413 480.097 110.035 479.881 107.57C479.636 104.764 480.036 101.988 481.08 99.2415C482.117 96.4096 483.467 93.7218 485.129 91.1779C486.791 88.6341 488.432 86.3489 490.054 84.3226C494.15 79.2529 498.057 75.4419 501.774 72.8896C505.576 70.3298 508.667 68.9458 511.048 68.7376C513.428 68.5293 515.246 68.7557 516.504 69.4166C517.761 70.0776 518.65 70.942 519.172 72.0099C519.778 73.0704 520.165 74.0645 520.332 74.9922C520.636 76.5074 520.535 77.8012 520.029 78.8733C519.516 79.8605 518.749 80.3987 517.729 80.4879C516.794 80.5697 515.822 80.2265 514.812 79.4582C513.803 78.69 512.913 77.8255 512.144 76.8649C509.979 77.5683 508.11 78.2457 506.54 78.8971C504.962 79.4634 503.449 80.2811 502 81.3501C500.63 82.3266 499.041 83.7505 497.235 85.6217C494.024 89.0719 491.297 92.6513 489.051 96.3598C486.891 100.061 485.986 103.909 486.335 107.904C486.811 113.345 489.854 115.82 495.465 115.329C499.12 115.009 502.821 113.743 506.568 111.531C510.308 109.233 513.489 106.428 516.111 103.115C516.732 102.375 517.467 101.969 518.317 101.894C518.997 101.835 519.568 101.999 520.031 102.387C520.578 102.767 520.881 103.297 520.941 103.977C521.008 104.743 520.727 105.452 520.099 106.107C516.361 110.374 512.559 113.919 508.694 116.741C504.915 119.556 500.602 121.175 495.757 121.599Z" fill="white"/>
</g>
<defs>
<filter id="filter0_d_3_14" x="17.2911" y="32.8906" width="522.06" height="154.238" filterUnits="userSpaceOnUse" color-interpolation-filters="sRGB">
<feFlood flood-opacity="0" result="BackgroundImageFix"/>
<feColorMatrix in="SourceAlpha" type="matrix" values="0 0 0 0 0 0 0 0 0 0 0 0 0 0 0 0 0 0 127 0" result="hardAlpha"/>
<feOffset dx="10" dy="10"/>
<feGaussianBlur stdDeviation="2"/>
<feComposite in2="hardAlpha" operator="out"/>
<feColorMatrix type="matrix" values="0 0 0 0 0 0 0 0 0 0 0 0 0 0 0 0 0 0 0.25 0"/>
<feBlend mode="normal" in2="BackgroundImageFix" result="effect1_dropShadow_3_14"/>
<feBlend mode="normal" in="SourceGraphic" in2="effect1_dropShadow_3_14" result="shape"/>
</filter>
</defs>
</svg>
